PathFileType	4	(X/Y/Z)	..\data\2015026\dynamic\2015026_C5_03.trc
DataRate	CameraRate	NumFrames	NumMarkers	Units	OrigDataRate	OrigDataStartFrame	OrigNumFrames
100.000000	100.000000	4	48	mm	100.000000	34	136
Frame#	Time	L_IAS			L_IPS			R_IPS			R_IAS			L_FTC			L_FLE			L_FAX			L_TTC			L_FAL			L_FCC			L_FM1			L_FM2			L_FM5			R_FTC			R_FLE			R_FAX			R_TTC			R_FAL			R_FCC			R_FM1			R_FM2			R_FM5			CV7			TV10			SXS			SJN			L_SIA			L_SRS			L_SAA			L_SAE			L_HLE			L_HME			L_UOA			L_RSP			L_UHE			L_HM2			L_HM5			R_SIA			R_SRS			R_SAA			R_SAE			R_HLE			R_HME			R_UOA			R_RSP			R_UHE			R_HM2			R_HM5			
		X1	Y1	Z1	X2	Y2	Z2	X3	Y3	Z3	X4	Y4	Z4	X5	Y5	Z5	X6	Y6	Z6	X7	Y7	Z7	X8	Y8	Z8	X9	Y9	Z9	X10	Y10	Z10	X11	Y11	Z11	X12	Y12	Z12	X13	Y13	Z13	X14	Y14	Z14	X15	Y15	Z15	X16	Y16	Z16	X17	Y17	Z17	X18	Y18	Z18	X19	Y19	Z19	X20	Y20	Z20	X21	Y21	Z21	X22	Y22	Z22	X23	Y23	Z23	X24	Y24	Z24	X25	Y25	Z25	X26	Y26	Z26	X27	Y27	Z27	X28	Y28	Z28	X29	Y29	Z29	X30	Y30	Z30	X31	Y31	Z31	X32	Y32	Z32	X33	Y33	Z33	X34	Y34	Z34	X35	Y35	Z35	X36	Y36	Z36	X37	Y37	Z37	X38	Y38	Z38	X39	Y39	Z39	X40	Y40	Z40	X41	Y41	Z41	X42	Y42	Z42	X43	Y43	Z43	X44	Y44	Z44	X45	Y45	Z45	X46	Y46	Z46	X47	Y47	Z47	X48	Y48	Z48	

35	0.34	-733.2635498046876	945.623229980469	87.83477783203118	-919.907409667969	944.588073730469	145.3607482910155	-912.7667236328127	954.589782714844	259.9717407226562	-721.9128417968751	938.325866699219	309.4917602539062	-799.3612060546877	861.5258789062502	21.35399055480947	-618.5079345703126	480.8472595214845	60.27780914306634	-644.0604858398439	431.9702148437501	62.88593673706048	-572.3683471679689	418.4781799316407	100.4072265625	-696.5881347656251	96.34799957275393	90.32314300537102	-737.9674682617189	51.96226119995119	137.7753601074218	-550.9229125976564	38.60910415649415	132.7548065185547	-556.8988647460939	52.41681289672853	83.74846649169916	-603.7445068359376	36.7647819519043	43.28897094726556	-814.4597167968752	855.3833618164065	371.7283935546874	-866.4599609375002	463.935028076172	291.5905151367187	-901.950134277344	407.8014526367189	294.9756164550781	-851.0421142578127	389.512664794922	240.8040618896484	-960.1759033203127	66.41820526123048	264.4106750488281	-1007.288452148438	26.87870979309083	224.3246002197265	-811.0542602539065	20.20845603942871	185.2037658691406	-808.645202636719	34.13039016723634	241.0963592529297	-853.496032714844	18.7173137664795	292.2154541015624	-879.6961059570315	1430.721435546875	207.2743988037109	-948.7625732421877	1192.835083007813	199.6473236083984	-722.2730102539064	1136.702758789063	183.2240753173828	-757.0493164062501	1349.4111328125	190.9652862548828	-954.1729736328127	1230.581176757813	121.2459640502929	-928.2340087890627	1362.126220703125	119.8605804443359	-887.7232666015627	1373.00634765625	34.89809799194326	-848.2700805664065	1374.63720703125	14.35931587219228	-886.7007446289065	1067.795654296875	-55.85356903076184	-923.6951904296877	1060.533447265625	17.92499923706044	-925.0170898437502	1058.528564453125	-30.01222038269055	-840.2253417968752	824.9589843750002	-24.55832481384288	-906.776794433594	837.7579345703127	-68.71394348144544	-840.131774902344	741.8491210937501	-26.56984519958507	-931.1623535156252	767.0099487304689	-66.05882263183607	-945.175964355469	1230.149047851563	285.8344726562499	-920.4644775390627	1358.4326171875	254.5144805908203	-867.2730102539065	1373.161499023438	356.6596374511718	-812.3823242187502	1372.482666015625	374.8565979003906	-804.0659790039065	1059.269775390625	441.7310485839844	-835.8358154296877	1039.116088867188	371.7100524902343	-833.4599609375002	1026.064208984375	419.1343383789062	-637.5991821289064	868.6160888671877	415.4718322753907	-706.3018188476564	833.2489013671877	428.0552368164062	-590.0133056640626	795.2479248046877	421.9158935546876	-687.7492675781251	763.7316894531251	429.6148376464844	
36	0.35	-715.7139892578126	941.8542480468752	87.99724578857415	-902.867858886719	940.0640869140627	144.2095947265624	-896.2798461914065	950.0902099609377	259.0249633789062	-705.3847656250001	934.574645996094	309.9891967773437	-780.676940917969	857.6772460937502	21.04902648925772	-596.4751586914064	479.1502075195314	61.65597152709955	-619.1304931640626	428.626678466797	63.5651779174804	-547.0440063476564	419.2301635742189	101.8927230834961	-645.7630004882814	90.01278686523439	88.02095031738274	-684.0703125000001	42.53498458862305	135.067398071289	-496.9147949218751	43.04185104370118	131.5805969238281	-503.5783691406251	56.62262344360353	82.53195953369136	-548.7795410156251	38.00880432128907	41.59098434448237	-799.2679443359377	852.0750732421877	371.3623962402343	-860.0288696289065	463.3044433593751	291.7613830566406	-896.3631591796877	407.7949218750001	294.9335632324218	-845.6558837890627	388.404510498047	240.8612060546874	-959.6790771484377	67.0516815185547	263.7592773437499	-1006.958068847656	27.72180938720704	223.6174163818359	-810.522399902344	20.29736709594727	185.2430877685546	-808.2446289062502	34.11491012573243	241.1749420166015	-853.375427246094	18.91689109802246	292.1363220214843	-862.8282470703127	1426.939208984375	207.2426300048828	-932.1428222656252	1189.205078125	199.5169067382812	-705.7555541992189	1132.493408203125	183.4187469482421	-740.1662597656251	1345.60498046875	190.9231719970703	-937.2646484375002	1226.61083984375	121.3892364501952	-911.3692016601565	1358.319946289063	120.0000076293944	-870.9553222656252	1369.096801757813	34.97824096679678	-831.6246337890627	1370.62890625	14.23879528045645	-873.099304199219	1064.498168945313	-56.26552963256848	-909.8586425781252	1057.109252929688	17.08567810058583	-911.3911132812502	1055.794555664063	-30.38865852355969	-831.1102294921877	820.9390869140627	-26.09357452392589	-897.1350708007815	835.1265869140627	-70.37760925292982	-833.003112792969	737.8001708984376	-27.95048713684093	-923.3552246093752	764.8594360351564	-67.74099731445325	-928.5781250000002	1226.393188476563	285.9039916992187	-903.7463378906252	1354.853637695313	254.6434173583984	-850.280456542969	1369.24951171875	356.8333129882812	-795.2452392578127	1368.698364257813	374.7130126953124	-782.0332641601565	1055.771606445313	441.8277282714844	-814.4277343750002	1034.948974609375	372.4322814941406	-811.0032348632815	1021.921691894531	419.6830139160156	-609.2720336914064	871.2014770507815	412.3688354492188	-676.6695556640626	833.2099609375002	425.1047058105469	-559.1893310546876	799.5717773437502	417.2383422851563	-655.5317993164064	764.4069213867189	425.4539794921876	
37	0.36	-698.0544433593751	937.9329833984377	88.09716796874993	-885.7644042968752	935.2380981445315	142.9751586914062	-879.8315429687502	945.3215332031252	257.9241027832031	-688.9852905273439	930.661560058594	310.5152587890625	-761.8814086914064	853.608581542969	20.72240066528311	-575.1417846679689	477.0139160156251	63.02157592773432	-594.8380126953126	425.0583801269532	64.20238494873041	-522.6152343750001	419.5943908691407	103.3743820190429	-595.7209472656251	85.09828186035158	85.76357269287104	-630.8660278320314	34.66483306884766	132.3784484863281	-444.3567504882814	48.72329711914064	130.7011413574218	-451.5886535644532	62.09166717529298	81.58640289306636	-494.9424743652345	40.71547317504884	40.13867568969721	-784.2258300781252	848.6878662109377	370.8770751953124	-852.8721313476565	462.5863342285157	291.8121337890624	-890.0852050781252	407.7269287109376	294.7712402343749	-839.6194458007815	387.1811828613282	240.838882446289	-959.1755371093752	67.80808258056642	263.1779785156249	-1006.71435546875	28.70712661743165	223.0164337158203	-809.8980102539065	20.41676902770996	185.3176574707031	-807.7554321289065	34.15754699707032	241.2810516357422	-853.176452636719	19.12424468994141	292.0666809082031	-845.9100341796877	1422.908569335938	207.1741790771484	-915.544616699219	1185.366821289063	199.2760925292968	-689.3267211914064	1127.882202148438	183.5539550781249	-723.2335815429689	1341.483276367188	190.8251190185546	-920.3339843750002	1222.415405273438	121.462905883789	-894.4441528320315	1354.30615234375	120.0691604614257	-854.120056152344	1364.97607421875	34.99984741210928	-814.9185791015627	1366.39111328125	14.05612468719473	-859.3276977539065	1060.968994140625	-56.69186019897473	-895.8469848632815	1053.414184570313	16.25992774963368	-897.5656738281252	1052.774291992188	-30.76571846008313	-821.592956542969	816.785339355469	-27.62982177734386	-887.0872192382815	832.2883300781252	-71.95222473144544	-825.3356933593752	733.5953979492189	-29.47631263732921	-914.9729614257815	762.5042114257814	-69.4056091308595	-912.0222167968752	1222.43896484375	285.8858032226562	-886.995544433594	1351.080444335938	254.7256927490234	-833.2011718750002	1365.071411132813	356.9738769531249	-778.0162353515627	1364.591674804688	374.5072631835937	-759.8545532226564	1052.14013671875	441.8771057128906	-792.9667968750002	1030.471313476563	373.1581420898437	-788.425720214844	1017.628784179688	420.2196044921875	-581.4595336914064	873.5008544921877	409.1343994140626	-647.5096435546876	833.0835571289065	422.1784973144532	-529.0820922851564	803.6309204101565	412.5195312500001	-623.9842529296876	765.0930175781251	421.4597167968751	
38	0.37	-680.2541503906251	933.9853515625002	88.16259765624993	-868.5484008789065	930.2635498046877	141.6582946777343	-863.3789672851565	940.4180297851565	256.6640319824218	-672.6854858398439	926.6850585937502	311.0745544433594	-742.9716796875001	849.4468994140627	20.36980438232413	-554.3590087890626	474.5690917968751	64.34823608398432	-571.1259155273439	421.3898925781251	64.79267120361322	-499.0087890625001	419.6302185058595	104.8383102416992	-547.0354614257814	81.53912353515626	83.65501403808588	-579.0536499023439	28.33057975769044	129.7960052490234	-393.8002319335939	55.36192321777345	130.2335510253906	-401.4562377929689	68.54273223876955	81.03358459472653	-442.8065795898439	44.63601303100587	39.05484390258784	-769.2934570312502	845.299255371094	370.2499694824218	-844.9235839843752	461.7861328125001	291.7199401855468	-883.060729980469	407.5996398925782	294.4779968261718	-832.8966064453127	385.848114013672	240.711196899414	-958.6653442382815	68.73567962646486	262.7113952636718	-1006.581665039063	29.9120273590088	222.5759277343749	-809.206481933594	20.52814292907715	185.4247741699218	-807.190368652344	34.23110580444337	241.4135437011718	-852.9104614257815	19.30391883850098	292.0130615234374	-828.9304199218752	1418.733642578125	207.0524902343749	-898.9300537109377	1181.409057617188	198.9229583740234	-672.9482421875001	1123.015502929688	183.6268463134765	-706.2365112304689	1337.159423828125	190.6640167236328	-903.354675292969	1218.095581054688	121.4665451049804	-877.4416503906252	1350.17822265625	120.0539932250976	-837.1983642578127	1360.744140625	34.95270919799795	-798.128845214844	1362.033203125	13.80623817443838	-845.3521118164065	1057.3037109375	-57.11816787719739	-881.6324462890627	1049.567260742188	15.48459720611562	-883.5112304687502	1049.570190429688	-31.12618064880382	-811.6466064453127	812.5720825195315	-29.14389801025401	-876.6160888671877	829.3280029296877	-73.41876983642591	-817.0974731445315	729.3070068359376	-31.13965225219737	-905.988708496094	760.0230102539064	-71.04634857177747	-895.4686279296877	1218.393432617188	285.7785034179687	-870.1956176757815	1347.207763671875	254.7457427978515	-816.0335083007815	1360.756958007813	357.0553283691406	-760.7009277343751	1360.30517578125	374.2237243652343	-737.5895996093751	1048.518798828125	441.8702392578125	-771.483093261719	1025.828491210938	373.8450317382812	-765.7947998046876	1013.309143066406	420.7160034179688	-554.2463989257814	875.547058105469	405.7765197753907	-618.9199829101564	832.9119262695315	419.2900085449219	-499.7749023437502	807.4248657226565	407.7982482910157	-593.2243041992189	765.8074340820314	417.6795043945313	
